HIERARCHY
ROOT Hips
{
	OFFSET 0.000000 213.258469 0.000000
	CHANNELS 6 Xposition Yposition Zposition Xrotation Yrotation Zrotation 
	JOINT Spine
	{
		OFFSET -0.057500 18.534302 -2.042900
		CHANNELS 3 Xrotation Yrotation Zrotation
		JOINT Spine1
		{
			OFFSET 0.152733 15.116297 -0.302700
			CHANNELS 3 Xrotation Yrotation Zrotation
			JOINT Spine1_split
			{
				OFFSET 0.152733 15.116297 -0.302700
				CHANNELS 3 Xrotation Yrotation Zrotation
				JOINT Spine2
				{
					OFFSET 0.152733 15.116297 -0.302700
					CHANNELS 3 Xrotation Yrotation Zrotation
					JOINT Neck
					{
						OFFSET 0.879800 30.689789 2.800200
						CHANNELS 3 Xrotation Yrotation Zrotation
						JOINT Head
						{
							OFFSET 0.154400 19.089386 6.327400
							CHANNELS 3 Xrotation Yrotation Zrotation
							JOINT HeadTop_End
							{
								OFFSET -0.090200 37.198914 12.932600
								CHANNELS 3 Xrotation Yrotation Zrotation
								End Site
								{
									OFFSET 0.000000 0.000000 0.000000
								}
							}
							JOINT RightEye
							{
								OFFSET -7.208700 15.216705 18.698000
								CHANNELS 3 Xrotation Yrotation Zrotation
								End Site
								{
									OFFSET 0.000000 0.000000 0.000000
								}
							}
							JOINT LeftEye
							{
								OFFSET 6.583300 15.572906 18.857599
								CHANNELS 3 Xrotation Yrotation Zrotation
								End Site
								{
									OFFSET 0.000000 0.000000 0.000000
								}
							}
						}
					}
					JOINT LeftShoulder
					{
						OFFSET 6.351950 9.506897 1.245000
						CHANNELS 3 Xrotation Yrotation Zrotation
						JOINT LeftShoulder_split
						{
							OFFSET 6.351950 9.506897 1.245000
							CHANNELS 3 Xrotation Yrotation Zrotation
							JOINT LeftArm
							{
								OFFSET 21.589767 0.944519 -3.635400
								CHANNELS 3 Xrotation Yrotation Zrotation
								JOINT LeftForeArm
								{
									OFFSET 59.458931 0.000000 -0.000000
									CHANNELS 3 Xrotation Yrotation Zrotation
									JOINT LeftHand
									{
										OFFSET 52.744682 0.000000 -0.000000
										CHANNELS 3 Xrotation Yrotation Zrotation
										JOINT LeftHandMiddle1
										{
											OFFSET 27.018738 0.000000 -0.000000
											CHANNELS 3 Xrotation Yrotation Zrotation
											JOINT LeftHandMiddle2
											{
												OFFSET 7.267807 0.000000 0.000000
												CHANNELS 3 Xrotation Yrotation Zrotation
												JOINT LeftHandMiddle3
												{
													OFFSET 6.382828 0.000000 0.000000
													CHANNELS 3 Xrotation Yrotation Zrotation
													JOINT LeftHandMiddle4
													{
														OFFSET 6.056519 0.000000 0.000000
														CHANNELS 3 Xrotation Yrotation Zrotation
														End Site
														{
															OFFSET 0.000000 0.000000 0.000000
														}
													}
												}
											}
										}
										JOINT LeftHandThumb1
										{
											OFFSET 10.972931 -3.485687 5.581335
											CHANNELS 3 Xrotation Yrotation Zrotation
											JOINT LeftHandThumb2
											{
												OFFSET 7.363785 -4.251495 4.251482
												CHANNELS 3 Xrotation Yrotation Zrotation
												JOINT LeftHandThumb3
												{
													OFFSET 5.747437 -3.318298 3.318285
													CHANNELS 3 Xrotation Yrotation Zrotation
													JOINT LeftHandThumb4
													{
														OFFSET 4.141098 -2.390869 2.390863
														CHANNELS 3 Xrotation Yrotation Zrotation
														End Site
														{
															OFFSET 0.000000 0.000000 0.000000
														}
													}
												}
											}
										}
										JOINT LeftHandIndex1
										{
											OFFSET 26.571350 -0.389832 5.172790
											CHANNELS 3 Xrotation Yrotation Zrotation
											JOINT LeftHandIndex2
											{
												OFFSET 6.607498 0.000000 -0.000000
												CHANNELS 3 Xrotation Yrotation Zrotation
												JOINT LeftHandIndex3
												{
													OFFSET 5.865524 0.000000 -0.000000
													CHANNELS 3 Xrotation Yrotation Zrotation
													JOINT LeftHandIndex4
													{
														OFFSET 5.346085 0.000000 -0.000000
														CHANNELS 3 Xrotation Yrotation Zrotation
														End Site
														{
															OFFSET 0.000000 0.000000 0.000000
														}
													}
												}
											}
										}
										JOINT LeftHandRing1
										{
											OFFSET 25.260437 0.333191 -4.011058
											CHANNELS 3 Xrotation Yrotation Zrotation
											JOINT LeftHandRing2
											{
												OFFSET 6.514114 0.000000 0.000000
												CHANNELS 3 Xrotation Yrotation Zrotation
												JOINT LeftHandRing3
												{
													OFFSET 5.830185 0.000000 0.000000
													CHANNELS 3 Xrotation Yrotation Zrotation
													JOINT LeftHandRing4
													{
														OFFSET 6.062103 0.000000 0.000000
														CHANNELS 3 Xrotation Yrotation Zrotation
														End Site
														{
															OFFSET 0.000000 0.000000 0.000000
														}
													}
												}
											}
										}
										JOINT LeftHandPinky1
										{
											OFFSET 21.936798 -0.474731 -8.608942
											CHANNELS 3 Xrotation Yrotation Zrotation
											JOINT LeftHandPinky2
											{
												OFFSET 6.074158 0.000000 0.000000
												CHANNELS 3 Xrotation Yrotation Zrotation
												JOINT LeftHandPinky3
												{
													OFFSET 4.158493 0.000000 0.000000
													CHANNELS 3 Xrotation Yrotation Zrotation
													JOINT LeftHandPinky4
													{
														OFFSET 4.546494 0.000000 0.000000
														CHANNELS 3 Xrotation Yrotation Zrotation
														End Site
														{
															OFFSET 0.000000 0.000000 0.000000
														}
													}
												}
											}
										}
									}
								}
							}
						}
					}
					JOINT RightShoulder
					{
						OFFSET -5.932150 9.566543 1.017200
						CHANNELS 3 Xrotation Yrotation Zrotation
						JOINT RightShoulder_split
						{
							OFFSET -5.932150 9.566543 1.017200
							CHANNELS 3 Xrotation Yrotation Zrotation
							JOINT RightArm
							{
								OFFSET -22.279423 0.825836 -4.611200
								CHANNELS 3 Xrotation Yrotation Zrotation
								JOINT RightForeArm
								{
									OFFSET -57.108730 0.000000 -0.000000
									CHANNELS 3 Xrotation Yrotation Zrotation
									JOINT RightHand
									{
										OFFSET -54.636559 0.000000 -0.000000
										CHANNELS 3 Xrotation Yrotation Zrotation
										JOINT RightHandMiddle1
										{
											OFFSET -26.522858 0.000000 0.000000
											CHANNELS 3 Xrotation Yrotation Zrotation
											JOINT RightHandMiddle2
											{
												OFFSET -6.352310 0.000000 0.000000
												CHANNELS 3 Xrotation Yrotation Zrotation
												JOINT RightHandMiddle3
												{
													OFFSET -6.073853 0.000000 0.000000
													CHANNELS 3 Xrotation Yrotation Zrotation
													JOINT RightHandMiddle4
													{
														OFFSET -7.614822 0.000000 0.000000
														CHANNELS 3 Xrotation Yrotation Zrotation
														End Site
														{
															OFFSET 0.000000 0.000000 0.000000
														}
													}
												}
											}
										}
										JOINT RightHandThumb1
										{
											OFFSET -10.884506 -4.141998 4.472391
											CHANNELS 3 Xrotation Yrotation Zrotation
											JOINT RightHandThumb2
											{
												OFFSET -7.145309 -4.125336 4.125345
												CHANNELS 3 Xrotation Yrotation Zrotation
												JOINT RightHandThumb3
												{
													OFFSET -5.636047 -3.253967 3.253973
													CHANNELS 3 Xrotation Yrotation Zrotation
													JOINT RightHandThumb4
													{
														OFFSET -4.778717 -2.759003 2.758990
														CHANNELS 3 Xrotation Yrotation Zrotation
														End Site
														{
															OFFSET 0.000000 0.000000 0.000000
														}
													}
												}
											}
										}
										JOINT RightHandIndex1
										{
											OFFSET -26.152145 -0.525452 5.316575
											CHANNELS 3 Xrotation Yrotation Zrotation
											JOINT RightHandIndex2
											{
												OFFSET -6.597137 0.000000 -0.000000
												CHANNELS 3 Xrotation Yrotation Zrotation
												JOINT RightHandIndex3
												{
													OFFSET -5.409225 0.000000 0.000000
													CHANNELS 3 Xrotation Yrotation Zrotation
													JOINT RightHandIndex4
													{
														OFFSET -5.802872 0.000000 0.000000
														CHANNELS 3 Xrotation Yrotation Zrotation
														End Site
														{
															OFFSET 0.000000 0.000000 0.000000
														}
													}
												}
											}
										}
										JOINT RightHandRing1
										{
											OFFSET -25.242569 0.095215 -4.210791
											CHANNELS 3 Xrotation Yrotation Zrotation
											JOINT RightHandRing2
											{
												OFFSET -5.821381 0.000000 0.000000
												CHANNELS 3 Xrotation Yrotation Zrotation
												JOINT RightHandRing3
												{
													OFFSET -6.125381 0.000000 0.000000
													CHANNELS 3 Xrotation Yrotation Zrotation
													JOINT RightHandRing4
													{
														OFFSET -6.805115 0.000000 0.000000
														CHANNELS 3 Xrotation Yrotation Zrotation
														End Site
														{
															OFFSET 0.000000 0.000000 0.000000
														}
													}
												}
											}
										}
										JOINT RightHandPinky1
										{
											OFFSET -23.154938 -0.553802 -8.610584
											CHANNELS 3 Xrotation Yrotation Zrotation
											JOINT RightHandPinky2
											{
												OFFSET -5.728821 0.000000 0.000000
												CHANNELS 3 Xrotation Yrotation Zrotation
												JOINT RightHandPinky3
												{
													OFFSET -3.530136 0.000000 0.000000
													CHANNELS 3 Xrotation Yrotation Zrotation
													JOINT RightHandPinky4
													{
														OFFSET -4.635925 0.000000 0.000000
														CHANNELS 3 Xrotation Yrotation Zrotation
														End Site
														{
															OFFSET 0.000000 0.000000 0.000000
														}
													}
												}
											}
										}
									}
								}
							}
						}
					}
				}
			}
		}
	}
	JOINT LeftUpLeg
	{
		OFFSET 20.196501 -14.277100 0.076500
		CHANNELS 3 Xrotation Yrotation Zrotation
		JOINT LeftLeg
		{
			OFFSET -2.171801 -92.030228 1.714900
			CHANNELS 3 Xrotation Yrotation Zrotation
			JOINT LeftFoot
			{
				OFFSET 2.171799 -82.438347 -4.383700
				CHANNELS 3 Xrotation Yrotation Zrotation
				JOINT LeftToeBase
				{
					OFFSET 1.872601 -20.435301 22.940201
					CHANNELS 3 Xrotation Yrotation Zrotation
					JOINT LeftToe_End
					{
						OFFSET 0.979799 -0.168600 19.301701
						CHANNELS 3 Xrotation Yrotation Zrotation
						End Site
						{
							OFFSET 0.000000 0.000000 0.000000
						}
					}
				}
			}
		}
	}
	JOINT RightUpLeg
	{
		OFFSET -19.350901 -15.749893 0.602600
		CHANNELS 3 Xrotation Yrotation Zrotation
		JOINT RightLeg
		{
			OFFSET 1.442940 -92.151535 1.775000
			CHANNELS 3 Xrotation Yrotation Zrotation
			JOINT RightFoot
			{
				OFFSET -1.442940 -81.349838 -5.438200
				CHANNELS 3 Xrotation Yrotation Zrotation
				JOINT RightToeBase
				{
					OFFSET -0.888700 -20.439501 22.941299
					CHANNELS 3 Xrotation Yrotation Zrotation
					JOINT RightToe_End
					{
						OFFSET -1.669399 -0.484300 19.837601
						CHANNELS 3 Xrotation Yrotation Zrotation
						End Site
						{
							OFFSET 0.000000 0.000000 0.000000
						}
					}
				}
			}
		}
	}
}
MOTION
Frames: 4
Frame Time: 0.016667
22.133142 206.087982 23.340698 -11.777054 20.427713 4.493362 16.454380 -5.969873 0.563606 3.761213 -2.586813 0.725706 0.000000 0.000000 0.000000 3.753317 -2.416839 1.779514 13.397431 2.928694 -1.285354 -17.066638 -4.179909 -2.210546 0.000000 0.000000 -0.000000 0.000000 0.000000 -0.000000 0.000000 0.000000 -0.000000 1.555797 -12.781366 -12.893036 0.000000 0.000000 0.000000 11.761191 1.436294 -53.096569 0.000004 -57.202114 0.000007 11.004656 -12.053181 -3.951619 4.975185 14.266048 -24.385321 1.110959 3.434138 -35.844334 1.011666 3.292544 -34.151824 0.000000 0.000002 -0.000002 -7.356396 -2.077822 7.947434 6.585969 20.123406 -6.338819 -10.528950 -2.879472 9.226710 0.000002 -0.000000 0.000001 -2.082914 -1.524232 -23.253972 0.591830 2.567877 -25.953457 0.535419 2.448678 -24.664295 -0.000001 0.000003 0.000002 3.363657 9.098995 -33.272741 0.943105 3.189307 -32.939076 0.837394 3.020159 -30.987776 0.000000 0.000000 -0.000003 4.426445 11.156360 -31.037729 0.509024 2.390429 -24.039191 0.421347 2.183451 -21.842226 0.000001 0.000001 0.000002 1.062937 5.436499 1.573896 0.000000 0.000000 0.000000 -13.190518 6.549646 64.550540 0.000005 31.104080 0.000005 19.716378 16.844879 10.892067 0.927199 -5.063880 43.393933 1.215954 -3.139922 42.330022 1.115545 -3.026178 40.463260 -0.000003 -0.000002 -0.000000 -8.122078 -18.037835 -17.896677 7.664615 -14.460847 1.378957 -4.766424 -10.180837 -18.412913 0.000000 0.000000 -0.000002 -2.651708 1.064740 30.580007 0.704350 -2.464567 31.894685 0.649005 -2.373386 30.583036 -0.000003 -0.000001 0.000003 -0.797686 -2.381257 33.268253 1.211632 -3.135170 42.251116 1.056817 -2.956040 39.337812 -0.000001 0.000001 0.000001 1.290676 -6.016194 24.412624 0.797808 -2.608600 34.005593 0.657943 -2.388427 30.798351 0.000002 -0.000001 0.000001 0.429068 9.096814 -3.189617 32.359257 -1.098257 -0.732017 -13.056349 -0.170784 5.622475 -11.503702 0.000012 0.000001 -0.000000 -0.000000 -0.000000 -22.718539 -6.619941 0.636394 44.687390 -0.630121 0.661201 0.932282 -4.224443 10.770164 -1.662285 0.000005 0.000000 0.000000 -0.000000 -0.000000 
22.166248 207.630417 25.102901 -11.734712 21.557585 4.288603 16.246025 -6.321182 0.710062 3.545645 -2.800524 0.736513 0.000000 0.000000 0.000000 3.538784 -2.633245 1.757393 13.251315 2.790961 -1.346535 -16.093020 -5.254477 -1.967060 0.000000 -0.000000 -0.000000 0.000000 -0.000000 -0.000000 0.000000 -0.000000 -0.000000 1.549805 -12.717263 -12.007873 0.000000 0.000000 0.000000 11.230940 4.305706 -53.542816 0.000032 -53.848863 0.000053 10.748090 -12.775738 -2.467905 4.566411 14.257869 -22.338767 0.958325 3.212662 -33.211904 0.874058 3.080292 -31.676645 -0.000002 -0.000001 0.000002 -7.307619 -1.711024 7.054284 6.418228 19.843880 -6.426096 -10.387773 -2.665191 9.341605 0.000000 0.000000 0.000001 -2.050965 -1.869426 -21.915755 0.517617 2.409557 -24.244084 0.470311 2.301752 -23.093749 -0.000001 -0.000001 -0.000001 3.140543 9.031196 -31.220460 0.803614 2.963241 -30.340274 0.716228 2.808822 -28.605001 0.000003 -0.000003 -0.000001 4.381664 11.372421 -29.789863 0.434600 2.216181 -22.187424 0.361646 2.028226 -20.217223 0.000001 -0.000001 -0.000001 1.056223 5.009597 1.278695 0.000000 0.000000 0.000000 -12.894014 3.476172 64.006536 -0.000007 29.607180 -0.000005 21.257579 16.092431 10.661122 0.747476 -4.854858 42.446351 1.156092 -3.073024 41.225512 1.068594 -2.970336 39.565896 0.000001 -0.000000 -0.000000 -8.113874 -18.319312 -18.151388 7.541881 -14.389793 1.261262 -4.562723 -10.595608 -18.367933 -0.000000 -0.000002 0.000001 -2.642972 1.249097 29.730885 0.681009 -2.426695 31.347560 0.630942 -2.342589 30.144186 0.000001 0.000000 0.000001 -0.769536 -2.257615 31.498940 1.098788 -3.006449 40.144833 0.963712 -2.838798 37.496267 -0.000002 0.000000 -0.000001 1.164630 -5.969888 21.680677 0.699602 -2.456927 31.783807 0.582397 -2.256975 28.934286 0.000001 -0.000002 0.000000 0.122652 9.214647 -2.405970 32.351362 -1.234301 -0.650935 -9.495177 0.107679 4.335820 -12.757262 0.000002 -0.000002 -0.000000 0.000001 -0.000000 -21.440845 -6.118823 2.374199 37.296268 -1.433870 0.833525 3.588593 -3.758678 13.416769 -1.247870 0.000003 0.000008 0.000000 0.000001 0.000001 
22.188860 208.646210 26.815231 -11.733571 22.463568 4.192356 15.965816 -6.662990 0.765373 3.390787 -2.992572 0.677394 0.000000 0.000000 0.000000 3.383967 -2.831139 1.661861 13.179099 2.608053 -1.381651 -15.346918 -6.382891 -1.643713 -0.000001 0.000001 -0.000000 -0.000001 0.000001 -0.000000 -0.000001 0.000001 -0.000000 1.545043 -12.817500 -11.178625 0.000000 0.000000 0.000000 10.919054 7.561882 -53.763964 -0.000002 -51.394967 -0.000001 10.356336 -12.703574 -1.278596 4.509272 14.263294 -22.036608 0.911869 3.140665 -32.373536 0.837423 3.020205 -30.988203 0.000001 -0.000001 -0.000001 -7.085898 -1.241911 6.570360 6.406119 19.953762 -6.578749 -10.270611 -2.518893 9.454811 0.000002 0.000000 -0.000002 -2.050397 -2.086551 -21.272069 0.490360 2.348177 -23.587729 0.449507 2.252372 -22.569872 -0.000002 -0.000001 -0.000001 3.098177 9.049641 -30.605842 0.747166 2.864753 -29.230119 0.672490 2.727201 -27.699557 -0.000000 0.000002 -0.000000 4.471710 11.587674 -29.545698 0.415280 2.168271 -21.682557 0.351486 2.000468 -19.928504 -0.000003 -0.000001 -0.000002 1.064166 4.808241 0.949293 0.000000 0.000000 0.000000 -12.527588 0.312805 63.412234 -0.000015 28.672485 0.000030 21.910607 15.170299 10.025052 0.661298 -4.742731 41.649510 1.129488 -3.042452 40.726765 1.053103 -2.951518 39.265907 -0.000002 0.000000 -0.000000 -8.060426 -18.627338 -18.254872 7.491054 -14.456792 1.140352 -4.400635 -10.914114 -18.308978 -0.000000 -0.000003 -0.000002 -2.623084 1.356373 29.140514 0.658060 -2.388622 30.800936 0.613094 -2.311594 29.704640 -0.000000 0.000000 -0.000002 -0.740171 -2.211648 30.518959 1.059774 -2.959621 39.394964 0.939169 -2.806545 36.997967 -0.000000 -0.000001 0.000002 1.105801 -5.969664 20.225843 0.678280 -2.422209 31.282987 0.576082 -2.245547 28.773736 -0.000001 0.000003 -0.000000 -1.099332 9.611732 -1.436557 34.023891 1.808549 -0.902694 -6.439944 0.618079 -0.034816 -15.246657 -0.083878 2.520567 -0.000000 -0.000004 -0.000000 -20.113825 -5.480417 3.839604 29.974125 -2.336143 0.794118 8.353239 -1.815285 16.726027 -1.332546 0.000006 -0.000008 -0.000000 0.000000 -0.000001 
22.299091 209.069565 28.517826 -11.956349 23.125970 4.319330 15.710299 -6.910514 0.699943 3.392450 -3.106851 0.525379 0.000000 0.000000 0.000000 3.383220 -2.957053 1.468718 13.176414 2.390007 -1.455231 -14.724990 -7.636419 -1.121041 0.000000 0.000000 -0.000000 0.000000 0.000000 -0.000000 0.000000 0.000000 -0.000000 1.547342 -13.077135 -10.270577 0.000000 0.000000 0.000000 10.799501 10.972691 -53.631916 -0.000016 -49.646019 -0.000042 9.545675 -12.148970 -0.156314 4.158871 14.189593 -20.393586 0.847337 3.036634 -31.175896 0.782762 2.927387 -29.934656 0.000003 -0.000001 0.000001 -6.949121 -0.830968 5.827329 6.380855 20.028372 -6.716530 -10.120214 -2.276239 9.568042 -0.000002 -0.000000 0.000003 -1.888362 -2.407606 -19.145080 0.445193 2.241953 -22.459673 0.411006 2.157483 -21.569244 -0.000002 -0.000001 -0.000002 2.905589 8.937157 -29.136573 0.722212 2.819772 -28.726918 0.657903 2.699254 -27.391275 0.000002 0.000000 -0.000003 4.717455 12.081727 -29.290020 0.404654 2.141345 -21.399729 0.348527 1.992288 -19.843472 -0.000003 0.000002 -0.000004 1.066852 4.568698 0.551877 0.000000 0.000000 0.000000 -12.045853 -2.872723 62.790831 0.000001 28.591790 -0.000006 22.184207 13.470981 8.781041 0.502696 -4.506864 39.537756 1.069463 -2.971379 39.582387 1.004336 -2.890911 38.308902 0.000002 -0.000001 0.000000 -7.985634 -18.955460 -18.354897 7.647910 -14.924091 1.009382 -4.252801 -11.199010 -18.245126 -0.000001 -0.000002 -0.000001 -2.583219 1.653663 27.672935 0.624036 -2.330657 29.974825 0.583905 -2.259719 28.972843 0.000002 0.000001 0.000005 -0.737484 -2.070351 29.054819 1.007796 -2.895258 38.377265 0.901277 -2.755612 36.217181 0.000002 0.000004 0.000001 1.122531 -6.252511 18.361459 0.657932 -2.388415 30.798115 0.569576 -2.233661 28.607399 0.000002 -0.000002 0.000002 -2.352050 10.333086 -0.793272 36.575311 5.805426 -1.496765 -3.925471 0.713035 -2.107038 -17.044928 -0.166335 3.524364 -0.000000 -0.000000 -0.000000 -18.674538 -4.504233 5.308668 22.899546 -3.306362 0.294588 13.475258 1.030911 20.744748 -0.473285 0.000000 -0.000000 0.000000 0.000000 -0.000000 
